<svg width="26" height="27" viewBox="0 0 26 27" fill="none" xmlns="http://www.w3.org/2000/svg">
<path d="M2.61519 11.5836L12.4584 3.40284C12.5532 3.32267 12.6733 3.27868 12.7974 3.27868C12.9216 3.27868 13.0417 3.32267 13.1365 3.40284L22.9797 11.5836C23.1425 11.7178 23.3305 11.8182 23.5326 11.8789C23.7347 11.9395 23.9469 11.9592 24.1567 11.9368C24.3666 11.9144 24.5698 11.8503 24.7546 11.7484C24.9393 11.6464 25.1019 11.5086 25.2327 11.343C25.5026 11.0043 25.6296 10.5735 25.5867 10.1425C25.5438 9.71151 25.3344 9.31427 25.003 9.03534L15.1598 0.843611C14.4934 0.298074 13.6587 0 12.7974 0C11.9362 0 11.1015 0.298074 10.4351 0.843611L0.591863 9.03534C0.260494 9.31427 0.0510738 9.71151 0.00817749 10.1425C-0.0347188 10.5735 0.0922967 11.0043 0.362188 11.343C0.493006 11.5086 0.655552 11.6464 0.840305 11.7484C1.02506 11.8503 1.2283 11.9144 1.43813 11.9368C1.64795 11.9592 1.86014 11.9395 2.06225 11.8789C2.26437 11.8182 2.45235 11.7178 2.61519 11.5836Z" fill="#B6B6B6"/>
<path d="M24.0955 24.0626V16.4068C24.0872 16.078 24.0121 15.7543 23.8748 15.4554C23.7376 15.1564 23.541 14.8885 23.2971 14.6678L14.2195 7.01203C13.8369 6.68967 13.3527 6.51288 12.8524 6.51288C12.3521 6.51288 11.8679 6.68967 11.4853 7.01203L2.40765 14.6678C2.16371 14.8885 1.96716 15.1564 1.82992 15.4554C1.69267 15.7543 1.6176 16.078 1.60925 16.4068V24.0626C1.60925 24.6428 1.83971 25.1991 2.24992 25.6093C2.66013 26.0196 3.2165 26.25 3.79663 26.25H9.63693C9.927 26.25 10.2052 26.1348 10.4103 25.9297C10.6154 25.7246 10.7306 25.4464 10.7306 25.1563V19.141C10.7306 18.851 10.8458 18.5728 11.051 18.3677C11.2561 18.1626 11.5342 18.0473 11.8243 18.0473H14.0117C14.3018 18.0473 14.5799 18.1626 14.785 18.3677C14.9901 18.5728 15.1054 18.851 15.1054 19.141V25.1563C15.1054 25.4464 15.2206 25.7246 15.4257 25.9297C15.6308 26.1348 15.909 26.25 16.1991 26.25H22.0831C22.6324 26.2059 23.1448 25.9562 23.5179 25.5506C23.891 25.1451 24.0973 24.6137 24.0955 24.0626Z" fill="#B6B6B6"/>
</svg>
